<svg width="20" height="19" viewBox="0 0 20 19" fill="none" xmlns="http://www.w3.org/2000/svg">
<path d="M10.001 2.02901C12.35 -0.0799897 15.98 -0.0099895 18.243 2.25701C20.505 4.52501 20.583 8.13701 18.479 10.493L9.99901 18.985L1.52101 10.493C-0.582994 8.13701 -0.503994 4.51901 1.75701 2.25701C4.02201 -0.00698948 7.64501 -0.0829897 10.001 2.02901ZM16.827 3.67001C15.327 2.16801 12.907 2.10701 11.337 3.51701L10.002 4.71501L8.66601 3.51801C7.09101 2.10601 4.67601 2.16801 3.17201 3.67201C1.68201 5.16201 1.60701 7.54701 2.98001 9.12301L10 16.154L17.02 9.12401C18.394 7.54701 18.319 5.16501 16.827 3.67001Z" fill="#082032"/>
</svg>
